HIERARCHY
ROOT Root
{
  OFFSET 0.0 0.0 0.0
  CHANNELS 6 Xposition Yposition Zposition Zrotation Yrotation Xrotation
  JOINT Hips
  {
    OFFSET 0.0 100.0 0.0
    CHANNELS 6 Xposition Yposition Zposition Zrotation Yrotation Xrotation
    JOINT Spine1
    {
      OFFSET 5.003913 -0.037094 -0.013727
      CHANNELS 3 Zrotation Yrotation Xrotation
      JOINT Spine2
      {
        OFFSET 7.125363 -1e-06 0.0
        CHANNELS 3 Zrotation Yrotation Xrotation
        JOINT Chest
        {
          OFFSET 7.594027 1e-06 0.0
          CHANNELS 3 Zrotation Yrotation Xrotation
          JOINT Neck1
          {
            OFFSET 26.313086 -0.460272 -0.181672
            CHANNELS 3 Zrotation Yrotation Xrotation
            JOINT Neck2
            {
              OFFSET 8.045911 0.0 0.0
              CHANNELS 3 Zrotation Yrotation Xrotation
              JOINT Head
              {
                OFFSET 6.432774 0.0 0.0
                CHANNELS 3 Zrotation Yrotation Xrotation
                JOINT HeadEnd
                {
                  OFFSET 16.169773 0.06451 0.00362
                  CHANNELS 3 Zrotation Yrotation Xrotation
                }
                JOINT Jaw
                {
                  OFFSET 0.108741 3.12938 0.002639
                  CHANNELS 3 Zrotation Yrotation Xrotation
                }
                JOINT LeftEye
                {
                  OFFSET 4.45173 8.166359 3.206392
                  CHANNELS 3 Zrotation Yrotation Xrotation
                }
                JOINT RightEye
                {
                  OFFSET 4.436895 8.135758 -3.222429
                  CHANNELS 3 Zrotation Yrotation Xrotation
                }
              }
            }
          }
          JOINT LeftShoulder
          {
            OFFSET 23.218927 5.195579 1.621656
            CHANNELS 3 Zrotation Yrotation Xrotation
            JOINT LeftArm
            {
              OFFSET 15.902118 2e-06 -2e-06
              CHANNELS 3 Zrotation Yrotation Xrotation
              JOINT LeftForeArm
              {
                OFFSET 28.739307 0.0 -1e-06
                CHANNELS 3 Zrotation Yrotation Xrotation
                JOINT LeftHand
                {
                  OFFSET 27.093981 -4e-06 0.0
                  CHANNELS 3 Zrotation Yrotation Xrotation
                  JOINT LeftHandThumb1
                  {
                    OFFSET 2.276781 3.380274 0.83384
                    CHANNELS 3 Zrotation Yrotation Xrotation
                    JOINT LeftHandThumb2
                    {
                      OFFSET 4.705309 -1e-06 -1e-06
                      CHANNELS 3 Zrotation Yrotation Xrotation
                      JOINT LeftHandThumb3
                      {
                        OFFSET 2.798515 0.0 3e-06
                        CHANNELS 3 Zrotation Yrotation Xrotation
                        JOINT LeftHandThumbEnd
                        {
                          OFFSET 3.180793 4e-06 -4e-06
                          CHANNELS 3 Zrotation Yrotation Xrotation
                        }
                      }
                    }
                  }
                  JOINT LeftHandIndex1
                  {
                    OFFSET 3.247786 2.352677 0.137192
                    CHANNELS 3 Zrotation Yrotation Xrotation
                    JOINT LeftHandIndex2
                    {
                      OFFSET 6.367095 1e-06 0.0
                      CHANNELS 3 Zrotation Yrotation Xrotation
                      JOINT LeftHandIndex3
                      {
                        OFFSET 3.662364 0.0 0.0
                        CHANNELS 3 Zrotation Yrotation Xrotation
                        JOINT LeftHandIndex4
                        {
                          OFFSET 2.329242 4e-06 -4e-06
                          CHANNELS 3 Zrotation Yrotation Xrotation
                          JOINT LeftHandIndexEnd
                          {
                            OFFSET 2.767823 1e-06 0.0
                            CHANNELS 3 Zrotation Yrotation Xrotation
                          }
                        }
                      }
                    }
                  }
                  JOINT LeftHandMiddle1
                  {
                    OFFSET 3.163612 0.945023 -0.406112
                    CHANNELS 3 Zrotation Yrotation Xrotation
                    JOINT LeftHandMiddle2
                    {
                      OFFSET 6.276789 3e-06 0.0
                      CHANNELS 3 Zrotation Yrotation Xrotation
                      JOINT LeftHandMiddle3
                      {
                        OFFSET 4.35652 -1e-06 4e-06
                        CHANNELS 3 Zrotation Yrotation Xrotation
                        JOINT LeftHandMiddle4
                        {
                          OFFSET 2.996877 0.0 8e-06
                          CHANNELS 3 Zrotation Yrotation Xrotation
                          JOINT LeftHandMiddleEnd
                          {
                            OFFSET 2.323256 3e-06 -4e-06
                            CHANNELS 3 Zrotation Yrotation Xrotation
                          }
                        }
                      }
                    }
                  }
                  JOINT LeftHandRing1
                  {
                    OFFSET 2.882606 -0.309162 0.107445
                    CHANNELS 3 Zrotation Yrotation Xrotation
                    JOINT LeftHandRing2
                    {
                      OFFSET 6.033198 0.0 4e-06
                      CHANNELS 3 Zrotation Yrotation Xrotation
                      JOINT LeftHandRing3
                      {
                        OFFSET 4.350578 3e-06 0.0
                        CHANNELS 3 Zrotation Yrotation Xrotation
                        JOINT LeftHandRing4
                        {
                          OFFSET 2.651321 2e-06 -7e-06
                          CHANNELS 3 Zrotation Yrotation Xrotation
                          JOINT LeftHandRingEnd
                          {
                            OFFSET 1.937663 1e-06 -4e-06
                            CHANNELS 3 Zrotation Yrotation Xrotation
                          }
                        }
                      }
                    }
                  }
                  JOINT LeftHandPinky1
                  {
                    OFFSET 2.865315 -1.525436 0.575687
                    CHANNELS 3 Zrotation Yrotation Xrotation
                    JOINT LeftHandPinky2
                    {
                      OFFSET 5.54936 1e-06 -8e-06
                      CHANNELS 3 Zrotation Yrotation Xrotation
                      JOINT LeftHandPinky3
                      {
                        OFFSET 3.070974 0.0 -4e-06
                        CHANNELS 3 Zrotation Yrotation Xrotation
                        JOINT LeftHandPinky4
                        {
                          OFFSET 1.549672 1e-06 0.0
                          CHANNELS 3 Zrotation Yrotation Xrotation
                          JOINT LeftHandPinkyEnd
                          {
                            OFFSET 1.952123 0.0 0.0
                            CHANNELS 3 Zrotation Yrotation Xrotation
                          }
                        }
                      }
                    }
                  }
                }
              }
            }
          }
          JOINT RightShoulder
          {
            OFFSET 23.161716 5.296122 -1.380114
            CHANNELS 3 Zrotation Yrotation Xrotation
            JOINT RightArm
            {
              OFFSET -16.027195 -2e-06 1.1e-05
              CHANNELS 3 Zrotation Yrotation Xrotation
              JOINT RightForeArm
              {
                OFFSET -28.736639 4e-06 2e-06
                CHANNELS 3 Zrotation Yrotation Xrotation
                JOINT RightHand
                {
                  OFFSET -27.133619 6e-06 0.0
                  CHANNELS 3 Zrotation Yrotation Xrotation
                  JOINT RightHandThumb1
                  {
                    OFFSET -2.274328 -3.351035 -0.83067
                    CHANNELS 3 Zrotation Yrotation Xrotation
                    JOINT RightHandThumb2
                    {
                      OFFSET -4.703594 -3e-06 2e-06
                      CHANNELS 3 Zrotation Yrotation Xrotation
                      JOINT RightHandThumb3
                      {
                        OFFSET -2.794935 -4e-06 -3e-06
                        CHANNELS 3 Zrotation Yrotation Xrotation
                        JOINT RightHandThumbEnd
                        {
                          OFFSET -3.183852 4e-06 1e-06
                          CHANNELS 3 Zrotation Yrotation Xrotation
                        }
                      }
                    }
                  }
                  JOINT RightHandIndex1
                  {
                    OFFSET -3.253496 -2.33755 -0.127667
                    CHANNELS 3 Zrotation Yrotation Xrotation
                    JOINT RightHandIndex2
                    {
                      OFFSET -6.344434 0.0 0.0
                      CHANNELS 3 Zrotation Yrotation Xrotation
                      JOINT RightHandIndex3
                      {
                        OFFSET -3.654871 0.0 -8e-06
                        CHANNELS 3 Zrotation Yrotation Xrotation
                        JOINT RightHandIndex4
                        {
                          OFFSET -2.327586 -1e-06 0.0
                          CHANNELS 3 Zrotation Yrotation Xrotation
                          JOINT RightHandIndexEnd
                          {
                            OFFSET -2.770001 3e-06 8e-06
                            CHANNELS 3 Zrotation Yrotation Xrotation
                          }
                        }
                      }
                    }
                  }
                  JOINT RightHandMiddle1
                  {
                    OFFSET -3.168223 -0.944764 0.411762
                    CHANNELS 3 Zrotation Yrotation Xrotation
                    JOINT RightHandMiddle2
                    {
                      OFFSET -6.266691 -1e-06 -4e-06
                      CHANNELS 3 Zrotation Yrotation Xrotation
                      JOINT RightHandMiddle3
                      {
                        OFFSET -4.348901 0.0 0.0
                        CHANNELS 3 Zrotation Yrotation Xrotation
                        JOINT RightHandMiddle4
                        {
                          OFFSET -3.00024 2e-06 -4e-06
                          CHANNELS 3 Zrotation Yrotation Xrotation
                          JOINT RightHandMiddleEnd
                          {
                            OFFSET -2.321477 -4e-06 -4e-06
                            CHANNELS 3 Zrotation Yrotation Xrotation
                          }
                        }
                      }
                    }
                  }
                  JOINT RightHandRing1
                  {
                    OFFSET -2.885654 0.293261 -0.119232
                    CHANNELS 3 Zrotation Yrotation Xrotation
                    JOINT RightHandRing2
                    {
                      OFFSET -6.032835 -1e-06 -4e-06
                      CHANNELS 3 Zrotation Yrotation Xrotation
                      JOINT RightHandRing3
                      {
                        OFFSET -4.33881 0.0 -4e-06
                        CHANNELS 3 Zrotation Yrotation Xrotation
                        JOINT RightHandRing4
                        {
                          OFFSET -2.654903 -4e-06 -4e-06
                          CHANNELS 3 Zrotation Yrotation Xrotation
                          JOINT RightHandRingEnd
                          {
                            OFFSET -1.935122 0.0 4e-06
                            CHANNELS 3 Zrotation Yrotation Xrotation
                          }
                        }
                      }
                    }
                  }
                  JOINT RightHandPinky1
                  {
                    OFFSET -2.866241 1.503904 -0.60527
                    CHANNELS 3 Zrotation Yrotation Xrotation
                    JOINT RightHandPinky2
                    {
                      OFFSET -5.553177 -2e-06 0.0
                      CHANNELS 3 Zrotation Yrotation Xrotation
                      JOINT RightHandPinky3
                      {
                        OFFSET -3.062664 -1e-06 -4e-06
                        CHANNELS 3 Zrotation Yrotation Xrotation
                        JOINT RightHandPinky4
                        {
                          OFFSET -1.546529 2e-06 4e-06
                          CHANNELS 3 Zrotation Yrotation Xrotation
                          JOINT RightHandPinkyEnd
                          {
                            OFFSET -1.952341 0.0 -4e-06
                            CHANNELS 3 Zrotation Yrotation Xrotation
                          }
                        }
                      }
                    }
                  }
                }
              }
            }
          }
        }
      }
    }
    JOINT LeftLeg
    {
      OFFSET -8.443107 2.567604 10.043214
      CHANNELS 3 Zrotation Yrotation Xrotation
      JOINT LeftShin
      {
        OFFSET 43.229198 1e-06 -1e-06
        CHANNELS 3 Zrotation Yrotation Xrotation
        JOINT LeftFoot
        {
          OFFSET 42.298611 1e-06 1e-06
          CHANNELS 3 Zrotation Yrotation Xrotation
          JOINT LeftToeBase
          {
            OFFSET 14.165858 1e-06 0.0
            CHANNELS 3 Zrotation Yrotation Xrotation
            JOINT LeftToeEnd
            {
              OFFSET 6.7141 -0.234461 0.0
              CHANNELS 3 Zrotation Yrotation Xrotation
            }
          }
        }
      }
    }
    JOINT RightLeg
    {
      OFFSET -8.303923 2.592729 -10.047278
      CHANNELS 3 Zrotation Yrotation Xrotation
      JOINT RightShin
      {
        OFFSET -43.369682 0.0 1e-06
        CHANNELS 3 Zrotation Yrotation Xrotation
        JOINT RightFoot
        {
          OFFSET -42.260784 4e-06 2e-06
          CHANNELS 3 Zrotation Yrotation Xrotation
          JOINT RightToeBase
          {
            OFFSET -14.222245 -2e-06 -1e-06
            CHANNELS 3 Zrotation Yrotation Xrotation
            JOINT RightToeEnd
            {
              OFFSET -6.660062 0.232574 -2e-06
              CHANNELS 3 Zrotation Yrotation Xrotation
            }
          }
        }
      }
    }
  }
}
MOTION
Frames: 4
Frame Time: 0.03333333333333333
0.0 0.0 0.0 0.0 -0.0 0.0 2.845754 100.543884 5.16705 89.481133 4.153375 90.089485 -1.684294 0.219039 -0.125827 -11.436109 -0.579902 0.100879 18.280092 -0.24931 -1.629249 22.601561 1.31716 2.546566 -2.571093 -0.531911 0.38982 -32.066669 -0.556188 0.706574 6e-06 0.0 0.0 0.018785 0.021847 -0.0214 0.036959 0.059312 -0.022155 0.040215 -0.017603 -0.01526 -131.395828 -71.922485 147.525391 40.221695 -54.989887 4.394695 22.690598 -0.132189 0.117541 1.307565 -5.57566 9.41047 17.636629 -26.322729 52.411179 -19.466665 -14.395597 29.410381 -1e-06 -8.774821 1e-06 16.018538 -18.196522 6.168977 -0.609776 -1.795654 -3.88933 -4.807088 -11.046809 -2.93785 5e-06 -20.976015 1e-06 -5.01997 -25.03356 -4.031878 5e-06 1e-06 1e-06 -10.634535 -5.68697 -3.565585 10.573277 -17.922951 -3.113901 3e-06 -13.821206 1e-06 -0.501775 -31.181501 -4.027014 -11.44719 -59.754478 7.56731 -13.982712 -7.150197 -2.875044 13.77273 -8.401493 -3.218243 0.347737 -34.211552 0.771656 -0.963026 -17.73337 2.621019 -0.0 -0.0 1e-06 -17.346413 -20.095217 -4.201783 21.757557 -1.638374 3.866425 2e-06 -6.338823 -2e-06 -1.697589 -22.59174 -6.194001 -1e-06 -2e-06 -3e-06 27.351299 -73.598572 167.878815 41.096775 -57.330055 -2.349681 20.822632 -0.577007 0.023105 -3.199761 -7.059765 13.252126 22.182114 -20.3759 49.933327 -16.701817 -16.74353 28.476542 -5e-06 -12.690601 -1e-06 16.155449 -17.782551 2.533793 -0.105919 -1.513856 -4.275883 -5.039041 -5.612871 -2.953553 5e-06 -11.020526 -1e-06 -6.111298 -15.895332 -3.840472 0.0 0.0 -0.0 -10.283369 -5.680287 -4.341839 11.028296 -11.302406 -2.372634 -1.384267 -14.238581 -6.320122 -0.62544 -26.924191 -3.827597 -4.044037 -49.77998 -4.104104 -13.708525 -7.363474 -3.720938 18.141153 -14.052739 -3.24268 8e-06 -18.78727 -2e-06 -0.429713 -8.456045 2.555507 -1e-06 -0.0 -1e-06 -15.923532 -20.094482 -5.473588 30.41921 -7.190826 1.735922 4e-06 -8.162929 1e-06 -1.861902 -22.861469 -6.167939 1e-06 -4e-06 -3e-06 179.64061 -3.399838 -13.824248 12.410798 -0.038377 0.003897 -75.739555 2.639526 -4.594323 -8.432603 1.478277 2.017977 -0.999999 0.0 0.0 3.600904 -0.810267 -3.662899 7.611175 0.038183 -0.093727 -75.222549 -4.174508 -4.632453 -7.778271 0.838089 1.652402 -1.000001 -1e-06 0.0 
0.0 0.0 0.0 0.0 -0.0 0.0 2.929893 100.514313 5.256335 89.381172 4.104783 89.975578 -1.627082 0.27252 -0.139293 -11.424706 -0.551644 0.154876 18.227156 -0.212264 -1.612304 22.630459 1.230629 2.55976 -2.545926 -0.542316 0.391505 -32.305862 -0.596833 0.652638 6e-06 -0.0 0.0 0.016763 0.022689 0.005963 0.041419 0.059494 0.005171 0.042522 -0.0161 0.011708 -131.04541 -72.009384 147.172516 40.536133 -55.177956 3.818359 22.744268 -0.16104 0.085888 1.166815 -5.803194 9.358623 17.636631 -26.322729 52.411186 -19.466665 -14.395598 29.410389 -1e-06 -8.774822 -1e-06 16.047314 -18.152998 6.123017 -0.609776 -1.795654 -3.889328 -4.807088 -11.046811 -2.937849 6e-06 -20.976015 -3e-06 -5.019969 -25.033556 -4.03188 6e-06 0.0 -2e-06 -10.634536 -5.68697 -3.565584 10.573277 -17.922953 -3.113903 3e-06 -13.821206 1e-06 -0.501773 -31.181505 -4.027016 -11.429439 -59.710129 7.612616 -13.982716 -7.150197 -2.875041 13.772733 -8.401493 -3.218244 0.347738 -34.211555 0.771654 -0.963028 -17.73337 2.621021 1e-06 1e-06 1e-06 -17.346416 -20.095217 -4.201784 21.757559 -1.638377 3.866427 2e-06 -6.338823 -2e-06 -1.697588 -22.591745 -6.194005 -2e-06 -4e-06 -0.0 27.222509 -73.725853 168.059341 41.156593 -57.391411 -2.497276 20.798677 -0.546258 0.027507 -3.13807 -7.176196 13.064198 22.182108 -20.375893 49.933319 -16.701813 -16.74353 28.47653 -5e-06 -12.690598 -2e-06 16.160791 -17.773127 2.4953 -0.105918 -1.513856 -4.275881 -5.039041 -5.612872 -2.953553 4e-06 -11.020523 -1e-06 -6.111298 -15.89533 -3.840473 -0.0 0.0 -1e-06 -10.283369 -5.680288 -4.341838 11.028294 -11.302406 -2.372633 -1.384266 -14.23858 -6.320123 -0.62544 -26.924187 -3.827598 -4.015856 -49.842327 -4.137269 -13.708523 -7.363475 -3.720936 18.14115 -14.052739 -3.242682 6e-06 -18.787266 -2e-06 -0.429712 -8.456045 2.555502 -0.0 -1e-06 -2e-06 -15.923532 -20.094482 -5.473586 30.41921 -7.190826 1.735929 3e-06 -8.162927 0.0 -1.861901 -22.861473 -6.167945 -0.0 -1e-06 -3e-06 179.101776 -3.579593 -13.775382 13.409333 -0.032732 0.058427 -76.091011 2.491894 -4.740277 -8.530489 1.511956 2.025692 -0.999999 -0.0 -0.0 3.21054 -0.783332 -3.62306 8.372319 0.035669 -0.081185 -75.515213 -4.164225 -4.62617 -7.854066 0.813818 1.647463 -1.000002 0.0 -0.0 
0.0 0.0 0.0 0.0 -0.0 0.0 2.991796 100.434982 5.385221 89.256805 4.071899 89.829521 -1.554094 0.336679 -0.146818 -11.423571 -0.530191 0.189488 18.255571 -0.15399 -1.554887 22.653316 1.132651 2.587953 -2.562808 -0.54192 0.364335 -32.575005 -0.64128 0.589386 5e-06 0.0 0.0 0.014147 0.022025 0.006447 0.029897 0.055924 0.007503 0.033836 -0.0143 0.009932 -130.555222 -72.107994 146.714264 40.891937 -55.373051 3.233335 22.858932 -0.173927 0.062589 0.944509 -6.079917 9.315151 17.636631 -26.322739 52.411201 -19.466665 -14.3956 29.410395 -1e-06 -8.774822 -2e-06 16.091352 -18.17968 6.104977 -0.609777 -1.795654 -3.889327 -4.807088 -11.046812 -2.937848 5e-06 -20.976021 0.0 -5.019968 -25.033564 -4.03188 4e-06 3e-06 -0.0 -10.634535 -5.68697 -3.565588 10.573275 -17.922955 -3.113901 3e-06 -13.821211 0.0 -0.501779 -31.181507 -4.027012 -11.471665 -59.712555 7.616339 -13.982716 -7.150198 -2.875042 13.772731 -8.401493 -3.218241 0.347733 -34.211555 0.771657 -0.96303 -17.73337 2.62102 0.0 -1e-06 -1e-06 -17.346422 -20.095221 -4.20178 21.757561 -1.638377 3.866429 2e-06 -6.338825 -0.0 -1.697587 -22.591753 -6.194006 -2e-06 -2e-06 -1e-06 27.075619 -73.919815 168.216492 41.258701 -57.496296 -2.753916 20.787277 -0.530523 0.016214 -3.129671 -7.224091 13.045928 22.182117 -20.375887 49.933308 -16.701811 -16.743525 28.476519 -4e-06 -12.690598 -2e-06 16.176254 -17.757011 2.478232 -0.105918 -1.513855 -4.275881 -5.039041 -5.612871 -2.953555 5e-06 -11.02052 -1e-06 -6.111295 -15.89533 -3.840472 0.0 0.0 -1e-06 -10.283369 -5.680287 -4.341835 11.028294 -11.302404 -2.372634 -1.384267 -14.238579 -6.320123 -0.625439 -26.924183 -3.8276 -4.000438 -49.847385 -4.169232 -13.708522 -7.363474 -3.72094 18.141148 -14.052739 -3.242674 7e-06 -18.787268 -5e-06 -0.429711 -8.456044 2.555504 -1e-06 1e-06 -2e-06 -15.923532 -20.094481 -5.473588 30.419207 -7.190827 1.735927 5e-06 -8.162925 -1e-06 -1.8619 -22.861464 -6.167939 1e-06 -5e-06 -3e-06 178.541168 -3.817878 -13.727106 14.642031 -0.032976 0.089468 -76.722168 2.325197 -4.85155 -8.576347 1.530475 2.033038 -0.999999 0.0 -0.0 2.726518 -0.727831 -3.584818 9.373439 0.035719 -0.075617 -76.053886 -4.162279 -4.65049 -7.840264 0.799837 1.645119 -1.000002 0.0 0.0 
0.0 0.0 0.0 0.0 -0.0 0.0 3.018593 100.328339 5.515093 89.098518 4.033335 89.621849 -1.478917 0.404809 -0.138902 -11.424294 -0.50178 0.22202 18.317316 -0.073759 -1.479399 22.677774 1.008704 2.608446 -2.585951 -0.546386 0.351831 -32.941082 -0.650284 0.528452 6e-06 0.0 -0.0 0.015079 0.022054 0.004054 0.017793 0.05376 0.006339 0.024154 -0.012523 0.006118 -129.943024 -72.180603 146.141861 41.239071 -55.583675 2.783335 22.983807 -0.146655 0.057989 0.717871 -6.310266 9.395652 17.636625 -26.322729 52.41119 -19.46666 -14.395597 29.410385 -0.0 -8.774821 -2e-06 16.097477 -18.176846 6.117208 -0.609777 -1.795655 -3.889324 -4.807088 -11.046812 -2.937854 5e-06 -20.976019 -2e-06 -5.019969 -25.03356 -4.03188 5e-06 -0.0 -0.0 -10.634533 -5.686971 -3.565587 10.573274 -17.922951 -3.113899 4e-06 -13.821208 -0.0 -0.501778 -31.181498 -4.027012 -11.510556 -59.736214 7.624481 -13.982714 -7.150198 -2.87504 13.772731 -8.401492 -3.218244 0.347734 -34.211555 0.771656 -0.963029 -17.73337 2.621021 -2e-06 1e-06 -1e-06 -17.346416 -20.095217 -4.20178 21.757559 -1.638376 3.866426 2e-06 -6.338823 -0.0 -1.69759 -22.591747 -6.194006 -2e-06 -3e-06 1e-06 26.96244 -74.181152 168.3311 41.397636 -57.65115 -3.02147 20.792326 -0.495913 0.007512 -3.115395 -7.232667 13.077089 22.18211 -20.375895 49.933319 -16.701813 -16.74353 28.476532 -4e-06 -12.6906 2e-06 16.17734 -17.727942 2.479548 -0.10592 -1.513856 -4.27588 -5.039041 -5.612872 -2.953556 3e-06 -11.02052 -1e-06 -6.111298 -15.89533 -3.840472 -1e-06 0.0 -0.0 -10.283369 -5.680288 -4.341838 11.028292 -11.302404 -2.372633 -1.384268 -14.238579 -6.32012 -0.62544 -26.924189 -3.8276 -4.008798 -49.789196 -4.165939 -13.708524 -7.363475 -3.720934 18.14115 -14.052738 -3.242678 5e-06 -18.787268 -3e-06 -0.429713 -8.456045 2.555503 -0.0 -1e-06 -2e-06 -15.923536 -20.094482 -5.473581 30.41921 -7.190821 1.735924 2e-06 -8.162925 0.0 -1.861905 -22.861467 -6.167941 0.0 -2e-06 -4e-06 177.969727 -4.126052 -13.752472 15.986238 -0.042406 0.10929 -77.484116 2.117589 -4.973427 -8.615462 1.54203 2.037134 -0.999999 -0.0 0.0 2.170631 -0.628214 -3.564065 10.492295 0.035422 -0.076706 -76.687691 -4.093934 -4.683182 -7.804489 0.78416 1.644221 -1.000002 -0.0 0.0 
